<svg width="258" height="159" viewBox="0 0 258 159" fill="none" xmlns="http://www.w3.org/2000/svg">
<rect width="258" height="159" fill="white"/>
<path d="M124.758 126C124.721 125.849 124.703 125.7 124.703 125.555L124.727 125.109C123.951 125.828 123.128 126.177 122.258 126.156C121.513 126.146 120.906 125.911 120.438 125.453C119.974 124.99 119.763 124.411 119.805 123.719C119.857 122.823 120.247 122.125 120.977 121.625C121.711 121.12 122.675 120.867 123.867 120.867L125.344 120.875L125.438 120.203C125.49 119.698 125.391 119.299 125.141 119.008C124.896 118.711 124.526 118.557 124.031 118.547C123.547 118.536 123.117 118.656 122.742 118.906C122.372 119.151 122.146 119.477 122.063 119.883L120.641 119.891C120.688 119.396 120.88 118.958 121.219 118.578C121.557 118.193 121.992 117.896 122.523 117.687C123.055 117.474 123.604 117.372 124.172 117.383C125.052 117.404 125.737 117.672 126.227 118.187C126.716 118.698 126.922 119.378 126.844 120.227L126.156 124.414L126.117 125.016C126.107 125.302 126.138 125.586 126.211 125.867L126.195 126H124.758ZM122.539 124.906C122.992 124.917 123.419 124.81 123.82 124.586C124.227 124.357 124.576 124.042 124.867 123.641L125.172 121.898L124.102 121.891C123.211 121.891 122.529 122.031 122.055 122.312C121.581 122.594 121.313 122.992 121.25 123.508C121.203 123.904 121.294 124.234 121.523 124.5C121.758 124.76 122.096 124.896 122.539 124.906ZM131.688 124.984C132.193 124.995 132.648 124.849 133.055 124.547C133.461 124.24 133.727 123.838 133.852 123.344L135.188 123.336C135.109 123.867 134.896 124.352 134.547 124.789C134.203 125.227 133.768 125.568 133.242 125.812C132.716 126.057 132.177 126.172 131.625 126.156C130.922 126.146 130.326 125.963 129.836 125.609C129.352 125.25 128.995 124.753 128.766 124.117C128.536 123.477 128.458 122.758 128.531 121.961L128.57 121.57C128.669 120.758 128.906 120.031 129.281 119.391C129.656 118.75 130.146 118.253 130.75 117.898C131.354 117.539 132.021 117.37 132.75 117.391C133.635 117.411 134.344 117.708 134.875 118.281C135.406 118.854 135.672 119.581 135.672 120.461L134.352 120.453C134.341 119.901 134.188 119.456 133.891 119.117C133.594 118.773 133.193 118.591 132.688 118.57C131.953 118.555 131.341 118.828 130.852 119.391C130.367 119.953 130.065 120.74 129.945 121.75L129.922 121.953C129.891 122.286 129.885 122.63 129.906 122.984C129.943 123.594 130.115 124.075 130.422 124.43C130.729 124.784 131.151 124.969 131.688 124.984ZM140.055 115.5L139.695 117.547H141.234L141.039 118.664H139.508L138.625 123.922C138.609 124.057 138.607 124.182 138.617 124.297C138.654 124.703 138.875 124.906 139.281 124.906C139.453 124.906 139.682 124.88 139.969 124.828L139.859 126.008C139.521 126.102 139.177 126.148 138.828 126.148C138.266 126.138 137.844 125.932 137.563 125.531C137.281 125.125 137.172 124.581 137.234 123.898L138.094 118.664H136.602L136.797 117.547H138.289L138.648 115.5H140.055ZM143.008 126H141.602L143.07 117.547H144.477L143.008 126ZM144.172 114.461C144.412 114.451 144.609 114.523 144.766 114.68C144.927 114.831 145.008 115.031 145.008 115.281C145.003 115.526 144.922 115.727 144.766 115.883C144.615 116.039 144.417 116.122 144.172 116.133C143.927 116.143 143.727 116.073 143.57 115.922C143.414 115.771 143.339 115.573 143.344 115.328C143.349 115.083 143.427 114.88 143.578 114.719C143.729 114.557 143.927 114.471 144.172 114.461ZM148.391 124.023L151.438 117.547H152.93L148.672 126H147.594L145.938 117.547H147.328L148.391 124.023ZM157.961 126C157.925 125.849 157.906 125.7 157.906 125.555L157.93 125.109C157.154 125.828 156.331 126.177 155.461 126.156C154.716 126.146 154.109 125.911 153.641 125.453C153.177 124.99 152.966 124.411 153.008 123.719C153.06 122.823 153.451 122.125 154.18 121.625C154.914 121.12 155.878 120.867 157.07 120.867L158.547 120.875L158.641 120.203C158.693 119.698 158.594 119.299 158.344 119.008C158.099 118.711 157.729 118.557 157.234 118.547C156.75 118.536 156.32 118.656 155.945 118.906C155.576 119.151 155.349 119.477 155.266 119.883L153.844 119.891C153.891 119.396 154.083 118.958 154.422 118.578C154.76 118.193 155.195 117.896 155.727 117.687C156.258 117.474 156.807 117.372 157.375 117.383C158.255 117.404 158.94 117.672 159.43 118.187C159.919 118.698 160.125 119.378 160.047 120.227L159.359 124.414L159.32 125.016C159.31 125.302 159.341 125.586 159.414 125.867L159.398 126H157.961ZM155.742 124.906C156.195 124.917 156.622 124.81 157.023 124.586C157.43 124.357 157.779 124.042 158.07 123.641L158.375 121.898L157.305 121.891C156.414 121.891 155.732 122.031 155.258 122.312C154.784 122.594 154.516 122.992 154.453 123.508C154.406 123.904 154.497 124.234 154.727 124.5C154.961 124.76 155.3 124.896 155.742 124.906ZM165.055 115.5L164.695 117.547H166.234L166.039 118.664H164.508L163.625 123.922C163.609 124.057 163.607 124.182 163.617 124.297C163.654 124.703 163.875 124.906 164.281 124.906C164.453 124.906 164.682 124.88 164.969 124.828L164.859 126.008C164.521 126.102 164.177 126.148 163.828 126.148C163.266 126.138 162.844 125.932 162.563 125.531C162.281 125.125 162.172 124.581 162.234 123.898L163.094 118.664H161.602L161.797 117.547H163.289L163.648 115.5H165.055ZM168.008 126H166.602L168.07 117.547H169.477L168.008 126ZM169.172 114.461C169.412 114.451 169.609 114.523 169.766 114.68C169.927 114.831 170.008 115.031 170.008 115.281C170.003 115.526 169.922 115.727 169.766 115.883C169.615 116.039 169.417 116.122 169.172 116.133C168.927 116.143 168.727 116.073 168.57 115.922C168.414 115.771 168.339 115.573 168.344 115.328C168.349 115.083 168.427 114.88 168.578 114.719C168.729 114.557 168.927 114.471 169.172 114.461ZM175.016 117.391C175.724 117.401 176.331 117.594 176.836 117.969C177.341 118.344 177.714 118.862 177.953 119.523C178.198 120.18 178.281 120.898 178.203 121.68L178.188 121.852C178.089 122.674 177.844 123.419 177.453 124.086C177.063 124.747 176.557 125.263 175.938 125.633C175.318 126.003 174.638 126.177 173.898 126.156C173.195 126.146 172.589 125.953 172.078 125.578C171.573 125.203 171.203 124.693 170.969 124.047C170.734 123.401 170.651 122.69 170.719 121.914C170.797 121.039 171.034 120.253 171.43 119.555C171.826 118.857 172.333 118.318 172.953 117.937C173.578 117.552 174.266 117.37 175.016 117.391ZM172.141 121.922C172.104 122.25 172.104 122.591 172.141 122.945C172.193 123.56 172.375 124.049 172.688 124.414C173.005 124.779 173.427 124.969 173.953 124.984C174.422 125 174.854 124.885 175.25 124.641C175.646 124.391 175.979 124.016 176.25 123.516C176.521 123.016 176.695 122.461 176.773 121.852C176.815 121.372 176.823 120.969 176.797 120.641C176.734 120.01 176.544 119.513 176.227 119.148C175.909 118.784 175.487 118.591 174.961 118.57C174.232 118.555 173.612 118.841 173.102 119.43C172.591 120.018 172.276 120.789 172.156 121.742L172.141 121.922ZM182.063 117.539L181.859 118.609C182.62 117.776 183.484 117.37 184.453 117.391C185.25 117.411 185.839 117.687 186.219 118.219C186.599 118.75 186.74 119.497 186.641 120.461L185.719 126H184.305L185.234 120.437C185.266 120.182 185.268 119.945 185.242 119.727C185.154 118.997 184.724 118.625 183.953 118.609C183.104 118.594 182.359 119.047 181.719 119.969L180.672 126H179.258L180.727 117.547L182.063 117.539ZM125.664 145L126.945 137.664H125.641L125.836 136.547H127.133L127.273 135.547C127.409 134.698 127.737 134.034 128.258 133.555C128.805 133.055 129.503 132.81 130.352 132.82C130.617 132.82 130.953 132.865 131.359 132.953L131.188 134.133C130.938 134.081 130.685 134.049 130.43 134.039C129.94 134.039 129.542 134.193 129.234 134.5C128.932 134.802 128.745 135.206 128.672 135.711L128.547 136.547H130.297L130.102 137.664H128.352L127.078 145H125.664ZM135.813 144.164C135.151 144.846 134.31 145.177 133.289 145.156C132.482 145.135 131.883 144.846 131.492 144.289C131.107 143.732 130.964 142.971 131.063 142.008L131.969 136.547H133.383L132.469 142.031C132.443 142.26 132.438 142.484 132.453 142.703C132.479 143.078 132.591 143.372 132.789 143.586C132.987 143.799 133.263 143.914 133.617 143.93C134.628 143.961 135.409 143.552 135.961 142.703L137.023 136.547H138.438L136.969 145H135.633L135.813 144.164ZM141.891 136.539L141.688 137.609C142.448 136.776 143.313 136.37 144.281 136.391C145.078 136.411 145.667 136.687 146.047 137.219C146.427 137.75 146.568 138.497 146.469 139.461L145.547 145H144.133L145.063 139.437C145.094 139.182 145.096 138.945 145.07 138.727C144.982 137.997 144.552 137.625 143.781 137.609C142.932 137.594 142.188 138.047 141.547 138.969L140.5 145H139.086L140.555 136.547L141.891 136.539ZM151.297 143.984C151.802 143.995 152.258 143.849 152.664 143.547C153.07 143.24 153.336 142.838 153.461 142.344L154.797 142.336C154.719 142.867 154.505 143.352 154.156 143.789C153.813 144.227 153.378 144.568 152.852 144.812C152.326 145.057 151.787 145.172 151.234 145.156C150.531 145.146 149.935 144.963 149.445 144.609C148.961 144.25 148.604 143.753 148.375 143.117C148.146 142.477 148.068 141.758 148.141 140.961L148.18 140.57C148.279 139.758 148.516 139.031 148.891 138.391C149.266 137.75 149.755 137.253 150.359 136.898C150.964 136.539 151.63 136.37 152.359 136.391C153.245 136.411 153.953 136.708 154.484 137.281C155.016 137.854 155.281 138.581 155.281 139.461L153.961 139.453C153.951 138.901 153.797 138.456 153.5 138.117C153.203 137.773 152.802 137.591 152.297 137.57C151.563 137.555 150.951 137.828 150.461 138.391C149.977 138.953 149.675 139.74 149.555 140.75L149.531 140.953C149.5 141.286 149.495 141.63 149.516 141.984C149.552 142.594 149.724 143.075 150.031 143.43C150.339 143.784 150.76 143.969 151.297 143.984ZM159.664 134.5L159.305 136.547H160.844L160.648 137.664H159.117L158.234 142.922C158.219 143.057 158.216 143.182 158.227 143.297C158.263 143.703 158.484 143.906 158.891 143.906C159.063 143.906 159.292 143.88 159.578 143.828L159.469 145.008C159.13 145.102 158.787 145.148 158.438 145.148C157.875 145.138 157.453 144.932 157.172 144.531C156.891 144.125 156.781 143.581 156.844 142.898L157.703 137.664H156.211L156.406 136.547H157.898L158.258 134.5H159.664ZM162.617 145H161.211L162.68 136.547H164.086L162.617 145ZM163.781 133.461C164.021 133.45 164.219 133.523 164.375 133.68C164.537 133.831 164.617 134.031 164.617 134.281C164.612 134.526 164.531 134.727 164.375 134.883C164.224 135.039 164.026 135.122 163.781 135.133C163.537 135.143 163.336 135.073 163.18 134.922C163.023 134.771 162.948 134.573 162.953 134.328C162.958 134.083 163.037 133.88 163.188 133.719C163.339 133.557 163.537 133.471 163.781 133.461ZM169.625 136.391C170.333 136.401 170.94 136.594 171.445 136.969C171.951 137.344 172.323 137.862 172.563 138.523C172.807 139.18 172.891 139.898 172.813 140.68L172.797 140.852C172.698 141.674 172.453 142.419 172.063 143.086C171.672 143.747 171.167 144.263 170.547 144.633C169.927 145.003 169.247 145.177 168.508 145.156C167.805 145.146 167.198 144.953 166.688 144.578C166.182 144.203 165.813 143.693 165.578 143.047C165.344 142.401 165.26 141.69 165.328 140.914C165.406 140.039 165.643 139.253 166.039 138.555C166.435 137.857 166.943 137.318 167.563 136.937C168.188 136.552 168.875 136.37 169.625 136.391ZM166.75 140.922C166.714 141.25 166.714 141.591 166.75 141.945C166.802 142.56 166.984 143.049 167.297 143.414C167.615 143.779 168.037 143.969 168.563 143.984C169.031 144 169.464 143.885 169.859 143.641C170.255 143.391 170.589 143.016 170.859 142.516C171.13 142.016 171.305 141.461 171.383 140.852C171.425 140.372 171.432 139.969 171.406 139.641C171.344 139.01 171.154 138.513 170.836 138.148C170.518 137.784 170.096 137.591 169.57 137.57C168.841 137.555 168.221 137.841 167.711 138.43C167.201 139.018 166.885 139.789 166.766 140.742L166.75 140.922ZM176.672 136.539L176.469 137.609C177.229 136.776 178.094 136.37 179.063 136.391C179.859 136.411 180.448 136.687 180.828 137.219C181.208 137.75 181.349 138.497 181.25 139.461L180.328 145H178.914L179.844 139.437C179.875 139.182 179.878 138.945 179.852 138.727C179.763 137.997 179.333 137.625 178.563 137.609C177.714 137.594 176.969 138.047 176.328 138.969L175.281 145H173.867L175.336 136.547L176.672 136.539Z" fill="black"/>
<path d="M40 27.0001L126 69.0001L126.439 68.1015L40.4388 26.1016L40 27.0001Z" fill="black"/>
<path d="M39 125L129 83L128.577 82.0938L38.5771 124.094L39 125Z" fill="black"/>
<path d="M41 77L130 77V76L41 76V77Z" fill="black"/>
<path d="M174 76.5C174 90.031 163.031 101 149.5 101C135.969 101 125 90.031 125 76.5C125 62.969 135.969 52 149.5 52C163.031 52 174 62.969 174 76.5Z" fill="#29A1F8"/>
<mask id="mask0" mask-type="alpha" maskUnits="userSpaceOnUse" x="125" y="52" width="49" height="49">
<path d="M174 76.5C174 90.031 163.031 101 149.5 101C135.969 101 125 90.031 125 76.5C125 62.969 135.969 52 149.5 52C163.031 52 174 62.969 174 76.5Z" fill="white"/>
</mask>
<g mask="url(#mask0)">
<path d="M173 76.5C173 89.4787 162.479 100 149.5 100V102C163.583 102 175 90.5833 175 76.5H173ZM149.5 100C136.521 100 126 89.4787 126 76.5H124C124 90.5833 135.417 102 149.5 102V100ZM126 76.5C126 63.5213 136.521 53 149.5 53V51C135.417 51 124 62.4167 124 76.5H126ZM149.5 53C162.479 53 173 63.5213 173 76.5H175C175 62.4167 163.583 51 149.5 51V53Z" fill="black"/>
</g>
<path d="M40 23.5C40 32.6127 32.6127 40 23.5 40C14.3873 40 7 32.6127 7 23.5C7 14.3873 14.3873 7 23.5 7C32.6127 7 40 14.3873 40 23.5Z" fill="white"/>
<mask id="mask1" mask-type="alpha" maskUnits="userSpaceOnUse" x="7" y="7" width="33" height="33">
<path d="M40 23.5C40 32.6127 32.6127 40 23.5 40C14.3873 40 7 32.6127 7 23.5C7 14.3873 14.3873 7 23.5 7C32.6127 7 40 14.3873 40 23.5Z" fill="white"/>
</mask>
<g mask="url(#mask1)">
<path d="M39 23.5C39 32.0604 32.0604 39 23.5 39V41C33.165 41 41 33.165 41 23.5H39ZM23.5 39C14.9396 39 8 32.0604 8 23.5H6C6 33.165 13.835 41 23.5 41V39ZM8 23.5C8 14.9396 14.9396 8 23.5 8V6C13.835 6 6 13.835 6 23.5H8ZM23.5 8C32.0604 8 39 14.9396 39 23.5H41C41 13.835 33.165 6 23.5 6V8Z" fill="black"/>
</g>
<path d="M41 76.5C41 85.6127 33.6127 93 24.5 93C15.3873 93 8 85.6127 8 76.5C8 67.3873 15.3873 60 24.5 60C33.6127 60 41 67.3873 41 76.5Z" fill="white"/>
<mask id="mask2" mask-type="alpha" maskUnits="userSpaceOnUse" x="8" y="60" width="33" height="33">
<path d="M41 76.5C41 85.6127 33.6127 93 24.5 93C15.3873 93 8 85.6127 8 76.5C8 67.3873 15.3873 60 24.5 60C33.6127 60 41 67.3873 41 76.5Z" fill="white"/>
</mask>
<g mask="url(#mask2)">
<path d="M40 76.5C40 85.0604 33.0604 92 24.5 92V94C34.165 94 42 86.165 42 76.5H40ZM24.5 92C15.9396 92 9 85.0604 9 76.5H7C7 86.165 14.835 94 24.5 94V92ZM9 76.5C9 67.9396 15.9396 61 24.5 61V59C14.835 59 7 66.835 7 76.5H9ZM24.5 61C33.0604 61 40 67.9396 40 76.5H42C42 66.835 34.165 59 24.5 59V61Z" fill="black"/>
</g>
<path d="M41 129.5C41 138.613 33.6127 146 24.5 146C15.3873 146 8 138.613 8 129.5C8 120.387 15.3873 113 24.5 113C33.6127 113 41 120.387 41 129.5Z" fill="white"/>
<mask id="mask3" mask-type="alpha" maskUnits="userSpaceOnUse" x="8" y="113" width="33" height="33">
<path d="M41 129.5C41 138.613 33.6127 146 24.5 146C15.3873 146 8 138.613 8 129.5C8 120.387 15.3873 113 24.5 113C33.6127 113 41 120.387 41 129.5Z" fill="white"/>
</mask>
<g mask="url(#mask3)">
<path d="M40 129.5C40 138.06 33.0604 145 24.5 145V147C34.165 147 42 139.165 42 129.5H40ZM24.5 145C15.9396 145 9 138.06 9 129.5H7C7 139.165 14.835 147 24.5 147V145ZM9 129.5C9 120.94 15.9396 114 24.5 114V112C14.835 112 7 119.835 7 129.5H9ZM24.5 114C33.0604 114 40 120.94 40 129.5H42C42 119.835 34.165 112 24.5 112V114Z" fill="black"/>
</g>
<path d="M79.1016 34C79.0078 33.8125 78.9316 33.4785 78.8731 32.998C78.1172 33.7832 77.2148 34.1758 76.166 34.1758C75.2285 34.1758 74.458 33.9121 73.8545 33.3848C73.2568 32.8516 72.958 32.1777 72.958 31.3633C72.958 30.373 73.333 29.6055 74.083 29.0605C74.8389 28.5098 75.8994 28.2344 77.2646 28.2344H78.8467V27.4873C78.8467 26.919 78.6768 26.4678 78.3369 26.1338C77.9971 25.794 77.4961 25.624 76.834 25.624C76.2539 25.624 75.7676 25.7705 75.375 26.0635C74.9824 26.3565 74.7861 26.7109 74.7861 27.127H73.1514C73.1514 26.6523 73.3184 26.1953 73.6523 25.7559C73.9922 25.3106 74.4492 24.959 75.0234 24.7012C75.6035 24.4434 76.2393 24.3145 76.9307 24.3145C78.0264 24.3145 78.8848 24.5898 79.5059 25.1406C80.1269 25.6856 80.4492 26.4385 80.4727 27.3994V31.7764C80.4727 32.6494 80.584 33.3438 80.8066 33.8594V34H79.1016ZM76.4033 32.7607C76.9131 32.7607 77.3965 32.6289 77.8535 32.3652C78.3105 32.1016 78.6416 31.7588 78.8467 31.3369V29.3857H77.5723C75.5801 29.3857 74.584 29.9688 74.584 31.1348C74.584 31.6445 74.7539 32.043 75.0937 32.3301C75.4336 32.6172 75.8701 32.7607 76.4033 32.7607Z" fill="black"/>
<path d="M79.1016 68C79.0078 67.8125 78.9316 67.4785 78.8731 66.998C78.1172 67.7832 77.2148 68.1758 76.166 68.1758C75.2285 68.1758 74.458 67.9121 73.8545 67.3848C73.2568 66.8516 72.958 66.1777 72.958 65.3633C72.958 64.373 73.333 63.6055 74.083 63.0605C74.8389 62.5098 75.8994 62.2344 77.2646 62.2344H78.8467V61.4873C78.8467 60.919 78.6768 60.4678 78.3369 60.1338C77.9971 59.794 77.4961 59.624 76.834 59.624C76.2539 59.624 75.7676 59.7705 75.375 60.0635C74.9824 60.3565 74.7861 60.7109 74.7861 61.127H73.1514C73.1514 60.6523 73.3184 60.1953 73.6523 59.7559C73.9922 59.3106 74.4492 58.959 75.0234 58.7012C75.6035 58.4434 76.2393 58.3145 76.9307 58.3145C78.0264 58.3145 78.8848 58.5898 79.5059 59.1406C80.1269 59.6856 80.4492 60.4385 80.4727 61.3994V65.7764C80.4727 66.6494 80.584 67.3438 80.8066 67.8594V68H79.1016ZM76.4033 66.7607C76.9131 66.7607 77.3965 66.6289 77.8535 66.3652C78.3105 66.1016 78.6416 65.7588 78.8467 65.3369V63.3857H77.5723C75.5801 63.3857 74.584 63.9688 74.584 65.1348C74.584 65.6445 74.7539 66.043 75.0937 66.3301C75.4336 66.6172 75.8701 66.7607 76.4033 66.7607Z" fill="black"/>
<path d="M79.1016 121C79.0078 120.813 78.9316 120.479 78.8731 119.998C78.1172 120.783 77.2148 121.176 76.166 121.176C75.2285 121.176 74.458 120.912 73.8545 120.385C73.2568 119.852 72.958 119.178 72.958 118.363C72.958 117.373 73.333 116.606 74.083 116.061C74.8389 115.51 75.8994 115.234 77.2646 115.234H78.8467V114.487C78.8467 113.919 78.6768 113.468 78.3369 113.134C77.9971 112.794 77.4961 112.624 76.834 112.624C76.2539 112.624 75.7676 112.771 75.375 113.063C74.9824 113.356 74.7861 113.711 74.7861 114.127H73.1514C73.1514 113.652 73.3184 113.195 73.6523 112.756C73.9922 112.311 74.4492 111.959 75.0234 111.701C75.6035 111.443 76.2393 111.314 76.9307 111.314C78.0264 111.314 78.8848 111.59 79.5059 112.141C80.1269 112.686 80.4492 113.438 80.4727 114.399V118.776C80.4727 119.649 80.584 120.344 80.8066 120.859V121H79.1016ZM76.4033 119.761C76.9131 119.761 77.3965 119.629 77.8535 119.365C78.3105 119.102 78.6416 118.759 78.8467 118.337V116.386H77.5723C75.5801 116.386 74.584 116.969 74.584 118.135C74.584 118.645 74.7539 119.043 75.0937 119.33C75.4336 119.617 75.8701 119.761 76.4033 119.761Z" fill="black"/>
<path d="M25.4072 30H23.7725V19.1631L20.4941 20.3672V18.8906L25.1523 17.1416H25.4072V30Z" fill="black"/>
<path d="M88.0586 36.3613C88.0586 37.6309 87.8418 38.5742 87.4082 39.1914C86.9746 39.8086 86.2969 40.1172 85.375 40.1172C84.4648 40.1172 83.791 39.8164 83.3535 39.2148C82.916 38.6094 82.6895 37.707 82.6738 36.5078V35.0606C82.6738 33.8066 82.8906 32.875 83.3242 32.2656C83.7578 31.6563 84.4375 31.3516 85.3633 31.3516C86.2813 31.3516 86.957 31.6465 87.3906 32.2363C87.8242 32.8223 88.0469 33.7285 88.0586 34.9551V36.3613ZM86.9746 34.8789C86.9746 33.9609 86.8457 33.293 86.5879 32.875C86.3301 32.4531 85.9219 32.2422 85.3633 32.2422C84.8086 32.2422 84.4043 32.4512 84.1504 32.8691C83.8965 33.2871 83.7656 33.9297 83.7578 34.7969V36.5313C83.7578 37.4531 83.8906 38.1348 84.1563 38.5762C84.4258 39.0137 84.832 39.2324 85.375 39.2324C85.9102 39.2324 86.3066 39.0254 86.5644 38.6113C86.8262 38.1973 86.9629 37.5449 86.9746 36.6543V34.8789Z" fill="black"/>
<path d="M86.2715 74H85.1816V66.7754L82.9961 67.5781V66.5938L86.1016 65.4277H86.2715V74Z" fill="black"/>
<path d="M31.2715 84H30.1816V76.7754L27.9961 77.5781V76.5938L31.1016 75.4277H31.2715V84Z" fill="black"/>
<path d="M88.2988 125H82.709V124.221L85.6621 120.939C86.0996 120.443 86.4004 120.041 86.5644 119.732C86.7324 119.42 86.8164 119.098 86.8164 118.766C86.8164 118.32 86.6816 117.955 86.4121 117.67C86.1426 117.385 85.7832 117.242 85.334 117.242C84.7949 117.242 84.375 117.396 84.0742 117.705C83.7773 118.01 83.6289 118.436 83.6289 118.982H82.5449C82.5449 118.197 82.7969 117.563 83.3008 117.078C83.8086 116.594 84.4863 116.352 85.334 116.352C86.127 116.352 86.7539 116.561 87.2148 116.979C87.6758 117.393 87.9062 117.945 87.9062 118.637C87.9062 119.477 87.3711 120.477 86.3008 121.637L84.0156 124.115H88.2988V125Z" fill="black"/>
<path d="M33.2988 137H27.709V136.221L30.6621 132.939C31.0996 132.443 31.4004 132.041 31.5644 131.732C31.7324 131.42 31.8164 131.098 31.8164 130.766C31.8164 130.32 31.6816 129.955 31.4121 129.67C31.1426 129.385 30.7832 129.242 30.334 129.242C29.7949 129.242 29.375 129.396 29.0742 129.705C28.7773 130.01 28.6289 130.436 28.6289 130.982H27.5449C27.5449 130.197 27.7969 129.563 28.3008 129.078C28.8086 128.594 29.4863 128.352 30.334 128.352C31.127 128.352 31.7539 128.561 32.2148 128.979C32.6758 129.393 32.9062 129.945 32.9062 130.637C32.9062 131.477 32.3711 132.477 31.3008 133.637L29.0156 136.115H33.2988V137Z" fill="black"/>
<path d="M23.4209 73.9619L25.5303 70.4902H27.4287L24.3174 75.1924L27.5254 80H25.6445L23.4473 76.4404L21.25 80H19.3604L22.5684 75.1924L19.457 70.4902H21.3379L23.4209 73.9619Z" fill="black"/>
<path d="M23.4209 125.962L25.5303 122.49H27.4287L24.3174 127.192L27.5254 132H25.6445L23.4473 128.44L21.25 132H19.3604L22.5684 127.192L19.457 122.49H21.3379L23.4209 125.962Z" fill="black"/>
<path d="M218.354 76.3534C218.549 76.1581 218.549 75.8416 218.354 75.6463L215.172 72.4643C214.976 72.2691 214.66 72.2691 214.465 72.4643C214.269 72.6596 214.269 72.9762 214.465 73.1714L217.293 75.9999L214.465 78.8283C214.269 79.0235 214.269 79.3401 214.465 79.5354C214.66 79.7307 214.976 79.7307 215.172 79.5354L218.354 76.3534ZM174 76.4999H218V75.4999H174V76.4999Z" fill="black"/>
<path d="M237.579 79.6182L239.794 72.4902H241.534L237.711 83.4678C237.119 85.0498 236.179 85.8408 234.89 85.8408L234.582 85.8145L233.976 85.7002V84.3818L234.415 84.417C234.966 84.417 235.394 84.3057 235.698 84.083C236.009 83.8604 236.264 83.4531 236.463 82.8613L236.823 81.8945L233.431 72.4902H235.206L237.579 79.6182Z" fill="black"/>
<path d="M236.982 64.3565L235.313 68.5928H233.801L236.429 62.2031H237.545L240.164 68.5928H238.661L236.982 64.3565Z" fill="black"/>
<path d="M142.406 82H140.719V69.2031H142.406V82ZM145.184 76.8057C145.184 75.4814 145.359 74.21 145.711 72.9912C146.068 71.7725 146.599 70.665 147.302 69.669C148.005 68.6729 148.734 67.9697 149.49 67.5596L149.824 68.6318C148.969 69.2881 148.266 70.29 147.715 71.6377C147.17 72.9854 146.871 74.4941 146.818 76.1641L146.81 76.9111C146.81 79.1729 147.223 81.1357 148.049 82.7998C148.547 83.7959 149.139 84.5752 149.824 85.1377L149.49 86.1309C148.711 85.6973 147.967 84.9707 147.258 83.9512C145.875 81.959 145.184 79.5771 145.184 76.8057ZM159.615 76.8936C159.615 78.2002 159.442 79.4541 159.097 80.6553C158.757 81.8506 158.232 82.9551 157.523 83.9688C156.82 84.9824 156.082 85.7031 155.309 86.1309L154.966 85.1377C155.868 84.4463 156.592 83.374 157.137 81.9209C157.688 80.4619 157.969 78.8447 157.98 77.0693V76.7881C157.98 75.5576 157.852 74.415 157.594 73.3603C157.336 72.2998 156.976 71.3506 156.513 70.5127C156.056 69.6748 155.54 69.0215 154.966 68.5527L155.309 67.5596C156.082 67.9873 156.817 68.7022 157.515 69.7041C158.218 70.7061 158.742 71.8105 159.088 73.0176C159.44 74.2246 159.615 75.5166 159.615 76.8936Z" fill="black"/>
</svg>
