<svg width="420" height="266" viewBox="0 0 420 266" fill="none" xmlns="http://www.w3.org/2000/svg">
<rect width="420" height="266" fill="white"/>
<rect x="170" y="22" width="78" height="36" fill="white"/>
<rect x="70" y="106" width="78" height="36" fill="white"/>
<rect x="270" y="106" width="78" height="36" fill="white"/>
<rect x="318" y="188" width="78" height="36" fill="white"/>
<rect x="222" y="188" width="78" height="36" fill="white"/>
<rect x="118" y="188" width="78" height="36" fill="white"/>
<rect x="22" y="188" width="78" height="36" fill="white"/>
<g filter="url(#filter0_d_32_36)">
<rect x="170" y="22" width="78" height="36" fill="#9F6336"/>
</g>
<path d="M177.361 43L179.905 35.152H181.537L184.081 43H182.605L181.417 38.824C181.305 38.408 181.185 37.98 181.057 37.54C180.937 37.1 180.825 36.664 180.721 36.232H180.673C180.561 36.664 180.445 37.1 180.325 37.54C180.213 37.98 180.097 38.408 179.977 38.824L178.777 43H177.361ZM178.861 40.876V39.784H182.545V40.876H178.861ZM187.748 45.604C187.204 45.604 186.732 45.544 186.332 45.424C185.932 45.312 185.62 45.14 185.396 44.908C185.172 44.676 185.06 44.384 185.06 44.032C185.06 43.8 185.14 43.576 185.3 43.36C185.46 43.144 185.692 42.956 185.996 42.796V42.748C185.844 42.652 185.704 42.528 185.576 42.376C185.456 42.216 185.396 42.012 185.396 41.764C185.396 41.572 185.46 41.376 185.588 41.176C185.716 40.976 185.888 40.804 186.104 40.66V40.612C185.896 40.46 185.716 40.256 185.564 40C185.42 39.736 185.348 39.432 185.348 39.088C185.348 38.632 185.46 38.248 185.684 37.936C185.908 37.616 186.204 37.376 186.572 37.216C186.94 37.048 187.34 36.964 187.772 36.964C188.124 36.964 188.432 37.012 188.696 37.108H191.108V38.164H189.752C189.856 38.276 189.944 38.42 190.016 38.596C190.096 38.764 190.136 38.944 190.136 39.136C190.136 39.568 190.028 39.936 189.812 40.24C189.604 40.536 189.324 40.76 188.972 40.912C188.62 41.064 188.22 41.14 187.772 41.14C187.636 41.14 187.488 41.128 187.328 41.104C187.176 41.072 187.024 41.028 186.872 40.972C186.752 41.044 186.66 41.124 186.596 41.212C186.54 41.3 186.512 41.404 186.512 41.524C186.512 41.708 186.604 41.848 186.788 41.944C186.98 42.032 187.26 42.076 187.628 42.076H188.828C189.596 42.076 190.172 42.188 190.556 42.412C190.948 42.628 191.144 42.996 191.144 43.516C191.144 43.9 191.004 44.252 190.724 44.572C190.452 44.892 190.06 45.144 189.548 45.328C189.044 45.512 188.444 45.604 187.748 45.604ZM187.772 40.264C187.98 40.264 188.168 40.22 188.336 40.132C188.504 40.036 188.636 39.9 188.732 39.724C188.836 39.548 188.888 39.336 188.888 39.088C188.888 38.848 188.836 38.644 188.732 38.476C188.636 38.3 188.504 38.164 188.336 38.068C188.168 37.972 187.98 37.924 187.772 37.924C187.572 37.924 187.388 37.972 187.22 38.068C187.052 38.164 186.916 38.3 186.812 38.476C186.708 38.644 186.656 38.848 186.656 39.088C186.656 39.336 186.708 39.548 186.812 39.724C186.916 39.9 187.052 40.036 187.22 40.132C187.388 40.22 187.572 40.264 187.772 40.264ZM187.916 44.692C188.3 44.692 188.632 44.648 188.912 44.56C189.2 44.472 189.42 44.356 189.572 44.212C189.732 44.068 189.812 43.912 189.812 43.744C189.812 43.512 189.712 43.356 189.512 43.276C189.32 43.204 189.024 43.168 188.624 43.168H187.688C187.496 43.168 187.328 43.16 187.184 43.144C187.04 43.128 186.908 43.108 186.788 43.084C186.58 43.204 186.432 43.328 186.344 43.456C186.256 43.584 186.212 43.716 186.212 43.852C186.212 44.116 186.36 44.32 186.656 44.464C186.952 44.616 187.372 44.692 187.916 44.692ZM195.472 43.144C194.872 43.144 194.328 43.024 193.84 42.784C193.352 42.536 192.964 42.184 192.676 41.728C192.388 41.264 192.244 40.704 192.244 40.048C192.244 39.408 192.388 38.86 192.676 38.404C192.964 37.94 193.34 37.584 193.804 37.336C194.268 37.088 194.764 36.964 195.292 36.964C195.876 36.964 196.368 37.084 196.768 37.324C197.176 37.564 197.484 37.896 197.692 38.32C197.908 38.736 198.016 39.216 198.016 39.76C198.016 39.896 198.008 40.028 197.992 40.156C197.984 40.276 197.972 40.376 197.956 40.456H193.24V39.472H197.068L196.804 39.784C196.804 39.2 196.672 38.764 196.408 38.476C196.152 38.18 195.792 38.032 195.328 38.032C195 38.032 194.704 38.108 194.44 38.26C194.184 38.412 193.98 38.64 193.828 38.944C193.676 39.24 193.6 39.608 193.6 40.048C193.6 40.504 193.684 40.88 193.852 41.176C194.028 41.472 194.268 41.696 194.572 41.848C194.884 42 195.244 42.076 195.652 42.076C195.964 42.076 196.252 42.032 196.516 41.944C196.78 41.856 197.044 41.736 197.308 41.584L197.776 42.448C197.464 42.648 197.112 42.816 196.72 42.952C196.328 43.08 195.912 43.144 195.472 43.144ZM211.878 42.532L207.318 39.508V38.524L211.878 35.5V36.784L208.482 38.992V39.04L211.878 41.248V42.532ZM214.034 38.2V37.192H219.362V38.2H214.034ZM214.034 40.888V39.88H219.362V40.888H214.034ZM228.544 43V41.872H230.668V36.856H228.976V35.992C229.296 35.944 229.576 35.892 229.816 35.836C230.056 35.78 230.272 35.712 230.464 35.632C230.664 35.552 230.856 35.464 231.04 35.368H232.048V41.872H233.92V43H228.544ZM237.192 43C237.224 42.32 237.288 41.696 237.384 41.128C237.488 40.56 237.632 40.028 237.816 39.532C238 39.028 238.236 38.532 238.524 38.044C238.82 37.556 239.176 37.052 239.592 36.532H235.476V35.368H241.116V36.208C240.62 36.768 240.216 37.3 239.904 37.804C239.592 38.3 239.344 38.808 239.16 39.328C238.984 39.84 238.856 40.392 238.776 40.984C238.696 41.576 238.636 42.248 238.596 43H237.192Z" fill="white"/>
<g filter="url(#filter1_d_32_36)">
<rect x="70" y="106" width="78" height="36" fill="white"/>
<rect x="70.5" y="106.5" width="77" height="35" stroke="#209766"/>
</g>
<g filter="url(#filter2_d_32_36)">
<rect x="22" y="188" width="78" height="36" fill="white"/>
<rect x="22.5" y="188.5" width="77" height="35" stroke="#209766"/>
</g>
<g filter="url(#filter3_d_32_36)">
<rect x="222" y="188" width="78" height="36" fill="white"/>
<rect x="222.5" y="188.5" width="77" height="35" stroke="#209766"/>
</g>
<g filter="url(#filter4_d_32_36)">
<rect x="270" y="106" width="78" height="36" fill="white"/>
<rect x="270.5" y="106.5" width="77" height="35" stroke="#C74E4E"/>
</g>
<g filter="url(#filter5_d_32_36)">
<rect x="118" y="188" width="78" height="36" fill="white"/>
<rect x="118.5" y="188.5" width="77" height="35" stroke="#C74E4E"/>
</g>
<g filter="url(#filter6_d_32_36)">
<rect x="318" y="188" width="78" height="36" fill="white"/>
<rect x="318.5" y="188.5" width="77" height="35" stroke="#C74E4E"/>
</g>
<path d="M210 63C210 62.4477 209.552 62 209 62C208.448 62 208 62.4477 208 63H210ZM108.293 104.707C108.683 105.098 109.317 105.098 109.707 104.707L116.071 98.3431C116.462 97.9526 116.462 97.3195 116.071 96.9289C115.681 96.5384 115.047 96.5384 114.657 96.9289L109 102.586L103.343 96.9289C102.953 96.5384 102.319 96.5384 101.929 96.9289C101.538 97.3195 101.538 97.9526 101.929 98.3431L108.293 104.707ZM208 63C208 67.6366 206.525 70.9865 204.003 73.461C201.449 75.9661 197.74 77.6548 193.139 78.7704C183.911 81.0083 171.559 80.8439 159.002 80.8125C146.543 80.7814 133.881 80.8818 124.335 83.7694C119.544 85.2188 115.447 87.3949 112.546 90.6877C109.629 94.0004 108 98.3556 108 104H110C110 98.7694 111.496 94.9059 114.047 92.0096C116.616 89.0933 120.331 87.0702 124.915 85.6837C134.119 82.8995 146.457 82.7811 158.997 82.8125C171.441 82.8436 184.089 83.023 193.611 80.714C198.385 79.5561 202.488 77.7487 205.403 74.8886C208.35 71.9979 210 68.1134 210 63H208Z" fill="url(#paint0_linear_32_36)"/>
<path d="M110 142C110 141.448 109.552 141 109 141C108.448 141 108 141.448 108 142H110ZM60.7929 184.707C61.1834 185.098 61.8166 185.098 62.2071 184.707L68.5711 178.343C68.9616 177.953 68.9616 177.319 68.5711 176.929C68.1805 176.538 67.5474 176.538 67.1569 176.929L61.5 182.586L55.8431 176.929C55.4526 176.538 54.8195 176.538 54.4289 176.929C54.0384 177.319 54.0384 177.953 54.4289 178.343L60.7929 184.707ZM108 142C108 146.782 107.271 150.254 106.057 152.786C104.854 155.297 103.153 156.929 101.109 158.015C99.042 159.114 96.5873 159.674 93.865 159.964C91.138 160.254 88.2252 160.265 85.2342 160.313C79.3539 160.405 73.1089 160.619 68.3723 163.735C63.522 166.926 60.5 172.956 60.5 184H62.5C62.5 173.294 65.4154 168.074 69.4715 165.406C73.6411 162.663 79.2711 162.407 85.2658 162.312C88.2123 162.266 91.237 162.254 94.0764 161.952C96.9205 161.65 99.6611 161.05 102.048 159.781C104.456 158.501 106.467 156.559 107.861 153.65C109.245 150.762 110 146.968 110 142H108Z" fill="url(#paint1_linear_32_36)"/>
<path d="M310 142C310 141.448 309.552 141 309 141C308.448 141 308 141.448 308 142H310ZM260.793 184.707C261.183 185.098 261.817 185.098 262.207 184.707L268.571 178.343C268.962 177.953 268.962 177.319 268.571 176.929C268.181 176.538 267.547 176.538 267.157 176.929L261.5 182.586L255.843 176.929C255.453 176.538 254.819 176.538 254.429 176.929C254.038 177.319 254.038 177.953 254.429 178.343L260.793 184.707ZM308 142C308 146.782 307.271 150.254 306.057 152.786C304.854 155.297 303.153 156.929 301.109 158.015C299.042 159.114 296.587 159.674 293.865 159.964C291.138 160.254 288.225 160.265 285.234 160.313C279.354 160.405 273.109 160.619 268.372 163.735C263.522 166.926 260.5 172.956 260.5 184H262.5C262.5 173.294 265.415 168.074 269.471 165.406C273.641 162.663 279.271 162.407 285.266 162.312C288.212 162.266 291.237 162.254 294.076 161.952C296.92 161.65 299.661 161.05 302.048 159.781C304.456 158.501 306.467 156.559 307.861 153.65C309.245 150.762 310 146.968 310 142H308Z" fill="url(#paint2_linear_32_36)"/>
<path d="M108 142C108 141.448 108.448 141 109 141C109.552 141 110 141.448 110 142H108ZM156.207 184.707C155.817 185.098 155.183 185.098 154.793 184.707L148.429 178.343C148.038 177.953 148.038 177.319 148.429 176.929C148.819 176.538 149.453 176.538 149.843 176.929L155.5 182.586L161.157 176.929C161.547 176.538 162.181 176.538 162.571 176.929C162.962 177.319 162.962 177.953 162.571 178.343L156.207 184.707ZM110 142C110 151.548 112.828 155.894 116.743 158.02C118.761 159.116 121.159 159.675 123.821 159.964C126.488 160.254 129.337 160.265 132.266 160.313C138.022 160.405 144.147 160.618 148.792 163.74C153.545 166.935 156.5 172.964 156.5 184H154.5C154.5 173.286 151.642 168.065 147.677 165.4C143.603 162.663 138.104 162.407 132.234 162.312C129.35 162.266 126.387 162.254 123.605 161.952C120.818 161.649 118.13 161.049 115.788 159.777C110.985 157.169 108 151.952 108 142H110Z" fill="url(#paint3_linear_32_36)"/>
<path d="M308 142C308 141.448 308.448 141 309 141C309.552 141 310 141.448 310 142H308ZM356.207 184.707C355.817 185.098 355.183 185.098 354.793 184.707L348.429 178.343C348.038 177.953 348.038 177.319 348.429 176.929C348.819 176.538 349.453 176.538 349.843 176.929L355.5 182.586L361.157 176.929C361.547 176.538 362.181 176.538 362.571 176.929C362.962 177.319 362.962 177.953 362.571 178.343L356.207 184.707ZM310 142C310 151.548 312.828 155.894 316.743 158.02C318.761 159.116 321.159 159.675 323.821 159.964C326.488 160.254 329.337 160.265 332.266 160.313C338.022 160.405 344.147 160.618 348.792 163.74C353.545 166.935 356.5 172.964 356.5 184H354.5C354.5 173.286 351.642 168.065 347.677 165.4C343.603 162.663 338.104 162.407 332.234 162.312C329.35 162.266 326.387 162.254 323.605 161.952C320.818 161.649 318.13 161.049 315.788 159.777C310.985 157.169 308 151.952 308 142H310Z" fill="url(#paint4_linear_32_36)"/>
<path d="M208 63C208 62.4477 208.448 62 209 62C209.552 62 210 62.4477 210 63H208ZM309.707 104.707C309.317 105.098 308.683 105.098 308.293 104.707L301.929 98.3431C301.538 97.9526 301.538 97.3195 301.929 96.9289C302.319 96.5384 302.953 96.5384 303.343 96.9289L309 102.586L314.657 96.9289C315.047 96.5384 315.681 96.5384 316.071 96.9289C316.462 97.3195 316.462 97.9526 316.071 98.3431L309.707 104.707ZM210 63C210 67.6366 211.475 70.9865 213.997 73.461C216.551 75.9661 220.26 77.6548 224.861 78.7704C234.089 81.0083 246.441 80.8439 258.998 80.8125C271.457 80.7814 284.119 80.8818 293.665 83.7694C298.456 85.2188 302.553 87.3949 305.454 90.6877C308.371 94.0004 310 98.3556 310 104H308C308 98.7694 306.504 94.9059 303.953 92.0096C301.384 89.0933 297.669 87.0702 293.085 85.6837C283.881 82.8995 271.543 82.7811 259.003 82.8125C246.559 82.8436 233.911 83.023 224.389 80.714C219.615 79.5561 215.512 77.7487 212.597 74.8886C209.65 71.9979 208 68.1134 208 63H210Z" fill="url(#paint5_linear_32_36)"/>
<g filter="url(#filter7_d_32_36)">
<rect x="70" y="106" width="78" height="36" fill="#9F6336"/>
</g>
<g filter="url(#filter8_d_32_36)">
<rect x="270" y="106" width="78" height="36" fill="#9F6336"/>
</g>
<path d="M81.8502 127L80.2902 119.152H81.7182L82.4022 123.112C82.4662 123.528 82.5302 123.948 82.5942 124.372C82.6662 124.788 82.7302 125.204 82.7862 125.62H82.8342C82.9222 125.204 83.0062 124.788 83.0862 124.372C83.1742 123.948 83.2622 123.528 83.3502 123.112L84.3102 119.152H85.5222L86.4822 123.112C86.5702 123.52 86.6582 123.936 86.7462 124.36C86.8342 124.776 86.9222 125.196 87.0102 125.62H87.0582C87.1222 125.196 87.1862 124.776 87.2502 124.36C87.3142 123.944 87.3742 123.528 87.4302 123.112L88.1142 119.152H89.4462L87.9462 127H86.2182L85.2462 122.872C85.1822 122.568 85.1182 122.264 85.0542 121.96C84.9982 121.656 84.9462 121.356 84.8982 121.06H84.8502C84.7942 121.356 84.7342 121.656 84.6702 121.96C84.6142 122.264 84.5542 122.568 84.4902 122.872L83.5422 127H81.8502ZM90.5479 127V121.108H91.9279V127H90.5479ZM91.2439 120.076C90.9959 120.076 90.7959 120.004 90.6439 119.86C90.4919 119.716 90.4159 119.524 90.4159 119.284C90.4159 119.052 90.4919 118.864 90.6439 118.72C90.7959 118.576 90.9959 118.504 91.2439 118.504C91.4919 118.504 91.6919 118.576 91.8439 118.72C91.9959 118.864 92.0719 119.052 92.0719 119.284C92.0719 119.524 91.9959 119.716 91.8439 119.86C91.6919 120.004 91.4919 120.076 91.2439 120.076ZM95.7645 127.144C95.0845 127.144 94.6005 126.948 94.3125 126.556C94.0325 126.156 93.8925 125.64 93.8925 125.008V122.2H93.0525V121.168L93.9645 121.108L94.1325 119.5H95.2845V121.108H96.7845V122.2H95.2845V125.008C95.2845 125.696 95.5605 126.04 96.1125 126.04C96.2165 126.04 96.3245 126.028 96.4365 126.004C96.5485 125.972 96.6445 125.94 96.7245 125.908L96.9645 126.928C96.8045 126.984 96.6205 127.032 96.4125 127.072C96.2125 127.12 95.9965 127.144 95.7645 127.144ZM98.0244 127V118.528H99.4044V120.712L99.3564 121.852C99.6044 121.62 99.8804 121.416 100.184 121.24C100.488 121.056 100.84 120.964 101.24 120.964C101.872 120.964 102.332 121.168 102.62 121.576C102.908 121.984 103.052 122.56 103.052 123.304V127H101.672V123.484C101.672 122.996 101.6 122.652 101.456 122.452C101.312 122.252 101.076 122.152 100.748 122.152C100.492 122.152 100.264 122.216 100.064 122.344C99.8724 122.464 99.6524 122.644 99.4044 122.884V127H98.0244ZM108.846 122.824L108.57 123.784H110.574L110.298 122.824C110.17 122.408 110.046 121.98 109.926 121.54C109.814 121.1 109.702 120.664 109.59 120.232H109.542C109.438 120.672 109.326 121.112 109.206 121.552C109.094 121.984 108.974 122.408 108.846 122.824ZM106.218 127L108.774 119.152H110.406L112.962 127H111.498L110.886 124.876H108.246L107.634 127H106.218ZM115.874 127.144C115.138 127.144 114.55 126.872 114.11 126.328C113.67 125.784 113.45 125.028 113.45 124.06C113.45 123.42 113.566 122.868 113.798 122.404C114.038 121.94 114.35 121.584 114.734 121.336C115.118 121.088 115.522 120.964 115.946 120.964C116.282 120.964 116.566 121.024 116.798 121.144C117.038 121.256 117.27 121.412 117.494 121.612L117.446 120.664V118.528H118.826V127H117.686L117.59 126.364H117.542C117.326 126.58 117.074 126.764 116.786 126.916C116.498 127.068 116.194 127.144 115.874 127.144ZM116.21 126.004C116.65 126.004 117.062 125.784 117.446 125.344V122.596C117.246 122.412 117.046 122.284 116.846 122.212C116.646 122.14 116.446 122.104 116.246 122.104C115.87 122.104 115.546 122.276 115.274 122.62C115.01 122.956 114.878 123.432 114.878 124.048C114.878 124.68 114.994 125.164 115.226 125.5C115.458 125.836 115.786 126.004 116.21 126.004ZM122.335 127.144C121.703 127.144 121.243 126.94 120.955 126.532C120.667 126.124 120.523 125.548 120.523 124.804V121.108H121.903V124.624C121.903 125.112 121.975 125.456 122.119 125.656C122.263 125.856 122.495 125.956 122.815 125.956C123.071 125.956 123.295 125.892 123.487 125.764C123.687 125.636 123.899 125.428 124.123 125.14V121.108H125.503V127H124.375L124.267 126.136H124.231C123.975 126.44 123.695 126.684 123.391 126.868C123.087 127.052 122.735 127.144 122.335 127.144ZM128.595 127.144C128.107 127.144 127.759 126.996 127.551 126.7C127.351 126.404 127.251 126 127.251 125.488V118.528H128.631V125.56C128.631 125.728 128.663 125.848 128.727 125.92C128.791 125.984 128.859 126.016 128.931 126.016C128.963 126.016 128.991 126.016 129.015 126.016C129.047 126.008 129.091 126 129.147 125.992L129.327 127.024C129.247 127.056 129.143 127.084 129.015 127.108C128.895 127.132 128.755 127.144 128.595 127.144ZM132.585 127.144C131.905 127.144 131.421 126.948 131.133 126.556C130.853 126.156 130.713 125.64 130.713 125.008V122.2H129.873V121.168L130.785 121.108L130.953 119.5H132.105V121.108H133.605V122.2H132.105V125.008C132.105 125.696 132.381 126.04 132.933 126.04C133.037 126.04 133.145 126.028 133.257 126.004C133.369 125.972 133.465 125.94 133.545 125.908L133.785 126.928C133.625 126.984 133.441 127.032 133.233 127.072C133.033 127.12 132.817 127.144 132.585 127.144ZM135.478 124.42C135.43 124.068 135.45 123.756 135.538 123.484C135.626 123.212 135.75 122.964 135.91 122.74C136.078 122.516 136.25 122.304 136.426 122.104C136.602 121.904 136.75 121.708 136.87 121.516C136.99 121.324 137.05 121.12 137.05 120.904C137.05 120.616 136.962 120.384 136.786 120.208C136.618 120.032 136.382 119.944 136.078 119.944C135.83 119.944 135.606 120 135.406 120.112C135.206 120.224 135.018 120.376 134.842 120.568L134.074 119.86C134.338 119.556 134.654 119.308 135.022 119.116C135.39 118.916 135.798 118.816 136.246 118.816C136.87 118.816 137.382 118.984 137.782 119.32C138.19 119.656 138.394 120.152 138.394 120.808C138.394 121.112 138.33 121.384 138.202 121.624C138.082 121.864 137.93 122.088 137.746 122.296C137.57 122.504 137.394 122.712 137.218 122.92C137.042 123.128 136.902 123.352 136.798 123.592C136.694 123.832 136.658 124.108 136.69 124.42H135.478ZM136.09 127.144C135.842 127.144 135.63 127.056 135.454 126.88C135.286 126.704 135.202 126.48 135.202 126.208C135.202 125.936 135.286 125.712 135.454 125.536C135.63 125.36 135.842 125.272 136.09 125.272C136.346 125.272 136.558 125.36 136.726 125.536C136.902 125.712 136.99 125.936 136.99 126.208C136.99 126.48 136.902 126.704 136.726 126.88C136.558 127.056 136.346 127.144 136.09 127.144Z" fill="white"/>
<path d="M281.107 125.632L281.731 124.684C282.075 124.908 282.423 125.096 282.775 125.248C283.135 125.392 283.519 125.464 283.927 125.464C284.311 125.464 284.599 125.392 284.791 125.248C284.991 125.104 285.091 124.912 285.091 124.672C285.091 124.464 285.003 124.292 284.827 124.156C284.651 124.012 284.423 123.884 284.143 123.772C283.871 123.66 283.579 123.548 283.267 123.436C282.955 123.316 282.659 123.176 282.379 123.016C282.107 122.848 281.883 122.644 281.707 122.404C281.531 122.164 281.443 121.864 281.443 121.504C281.443 121.112 281.547 120.772 281.755 120.484C281.963 120.196 282.255 119.976 282.631 119.824C283.015 119.664 283.451 119.584 283.939 119.584C284.483 119.584 284.935 119.676 285.295 119.86C285.663 120.044 285.987 120.276 286.267 120.556L285.571 121.36C285.291 121.152 285.023 120.992 284.767 120.88C284.519 120.768 284.211 120.712 283.843 120.712C283.515 120.712 283.255 120.78 283.063 120.916C282.871 121.052 282.775 121.24 282.775 121.48C282.775 121.656 282.863 121.808 283.039 121.936C283.215 122.064 283.443 122.18 283.723 122.284C284.003 122.388 284.295 122.5 284.599 122.62C284.911 122.732 285.203 122.872 285.475 123.04C285.755 123.208 285.983 123.416 286.159 123.664C286.343 123.904 286.435 124.208 286.435 124.576C286.435 124.968 286.323 125.316 286.099 125.62C285.883 125.924 285.575 126.164 285.175 126.34C284.783 126.508 284.307 126.592 283.747 126.592C283.443 126.592 283.127 126.552 282.799 126.472C282.479 126.384 282.171 126.268 281.875 126.124C281.587 125.98 281.331 125.816 281.107 125.632ZM283.399 120.04V118.048H284.359V120.04H283.399ZM283.399 126.052H284.359V128.32H283.399V126.052ZM300.585 126.532L296.025 123.508V122.524L300.585 119.5V120.784L297.189 122.992V123.04L300.585 125.248V126.532ZM302.741 122.2V121.192H308.069V122.2H302.741ZM302.741 124.888V123.88H308.069V124.888H302.741ZM317.083 125.632L317.707 124.684C318.051 124.908 318.399 125.096 318.751 125.248C319.111 125.392 319.495 125.464 319.903 125.464C320.287 125.464 320.575 125.392 320.767 125.248C320.967 125.104 321.067 124.912 321.067 124.672C321.067 124.464 320.979 124.292 320.803 124.156C320.627 124.012 320.399 123.884 320.119 123.772C319.847 123.66 319.555 123.548 319.243 123.436C318.931 123.316 318.635 123.176 318.355 123.016C318.083 122.848 317.859 122.644 317.683 122.404C317.507 122.164 317.419 121.864 317.419 121.504C317.419 121.112 317.523 120.772 317.731 120.484C317.939 120.196 318.231 119.976 318.607 119.824C318.991 119.664 319.427 119.584 319.915 119.584C320.459 119.584 320.911 119.676 321.271 119.86C321.639 120.044 321.963 120.276 322.243 120.556L321.547 121.36C321.267 121.152 320.999 120.992 320.743 120.88C320.495 120.768 320.187 120.712 319.819 120.712C319.491 120.712 319.231 120.78 319.039 120.916C318.847 121.052 318.751 121.24 318.751 121.48C318.751 121.656 318.839 121.808 319.015 121.936C319.191 122.064 319.419 122.18 319.699 122.284C319.979 122.388 320.271 122.5 320.575 122.62C320.887 122.732 321.179 122.872 321.451 123.04C321.731 123.208 321.959 123.416 322.135 123.664C322.319 123.904 322.411 124.208 322.411 124.576C322.411 124.968 322.299 125.316 322.075 125.62C321.859 125.924 321.551 126.164 321.151 126.34C320.759 126.508 320.283 126.592 319.723 126.592C319.419 126.592 319.103 126.552 318.775 126.472C318.455 126.384 318.147 126.268 317.851 126.124C317.563 125.98 317.307 125.816 317.083 125.632ZM319.375 120.04V118.048H320.335V120.04H319.375ZM319.375 126.052H320.335V128.32H319.375V126.052ZM324.171 127V126.196C324.971 125.508 325.655 124.896 326.223 124.36C326.799 123.824 327.239 123.336 327.543 122.896C327.855 122.448 328.011 122.028 328.011 121.636C328.011 121.228 327.887 120.908 327.639 120.676C327.391 120.436 327.027 120.316 326.547 120.316C326.219 120.316 325.915 120.4 325.635 120.568C325.355 120.736 325.099 120.936 324.867 121.168L324.111 120.4C324.479 120.024 324.867 119.736 325.275 119.536C325.683 119.328 326.167 119.224 326.727 119.224C327.255 119.224 327.711 119.32 328.095 119.512C328.487 119.704 328.791 119.976 329.007 120.328C329.223 120.68 329.331 121.092 329.331 121.564C329.331 122.012 329.191 122.472 328.911 122.944C328.631 123.408 328.251 123.884 327.771 124.372C327.299 124.86 326.767 125.372 326.175 125.908C326.399 125.884 326.635 125.864 326.883 125.848C327.131 125.832 327.359 125.824 327.567 125.824H329.727V127H324.171ZM334.186 127.144C333.61 127.144 333.11 126.988 332.686 126.676C332.262 126.364 331.934 125.912 331.702 125.32C331.47 124.728 331.354 124.004 331.354 123.148C331.354 121.86 331.61 120.884 332.122 120.22C332.634 119.556 333.322 119.224 334.186 119.224C335.058 119.224 335.746 119.556 336.25 120.22C336.762 120.884 337.018 121.86 337.018 123.148C337.018 124.004 336.902 124.728 336.67 125.32C336.446 125.912 336.122 126.364 335.698 126.676C335.274 126.988 334.77 127.144 334.186 127.144ZM334.186 126.064C334.49 126.064 334.762 125.968 335.002 125.776C335.242 125.576 335.43 125.264 335.566 124.84C335.702 124.408 335.77 123.844 335.77 123.148C335.77 122.452 335.702 121.896 335.566 121.48C335.43 121.064 335.242 120.764 335.002 120.58C334.762 120.396 334.49 120.304 334.186 120.304C333.882 120.304 333.61 120.396 333.37 120.58C333.13 120.764 332.942 121.064 332.806 121.48C332.67 121.896 332.602 122.452 332.602 123.148C332.602 123.844 332.67 124.408 332.806 124.84C332.942 125.264 333.13 125.576 333.37 125.776C333.61 125.968 333.882 126.064 334.186 126.064ZM334.186 123.952C333.962 123.952 333.766 123.876 333.598 123.724C333.438 123.572 333.358 123.364 333.358 123.1C333.358 122.836 333.438 122.628 333.598 122.476C333.766 122.324 333.962 122.248 334.186 122.248C334.418 122.248 334.614 122.324 334.774 122.476C334.934 122.628 335.014 122.836 335.014 123.1C335.014 123.364 334.934 123.572 334.774 123.724C334.614 123.876 334.418 123.952 334.186 123.952Z" fill="white"/>
<g filter="url(#filter9_d_32_36)">
<rect x="318" y="188" width="78" height="36" fill="#219867" fill-opacity="0.45" shape-rendering="crispEdges"/>
</g>
<g filter="url(#filter10_d_32_36)">
<rect x="22" y="188" width="78" height="36" fill="#219867" fill-opacity="0.45" shape-rendering="crispEdges"/>
</g>
<path d="M332.556 209L335.1 201.152H336.732L339.276 209H337.8L336.612 204.824C336.5 204.408 336.38 203.98 336.252 203.54C336.132 203.1 336.02 202.664 335.916 202.232H335.868C335.756 202.664 335.64 203.1 335.52 203.54C335.408 203.98 335.292 204.408 335.172 204.824L333.972 209H332.556ZM334.056 206.876V205.784H337.74V206.876H334.056ZM344.312 209.144C343.632 209.144 343.112 208.944 342.752 208.544C342.4 208.136 342.224 207.572 342.224 206.852V201.62H340.304V200.528H343.604V206.924C343.604 207.324 343.704 207.608 343.904 207.776C344.112 207.936 344.364 208.016 344.66 208.016C344.812 208.016 344.968 208 345.128 207.968C345.288 207.928 345.468 207.868 345.668 207.788L345.992 208.808C345.712 208.904 345.448 208.984 345.2 209.048C344.96 209.112 344.664 209.144 344.312 209.144ZM351.507 209.144C350.827 209.144 350.307 208.944 349.947 208.544C349.595 208.136 349.419 207.572 349.419 206.852V201.62H347.499V200.528H350.799V206.924C350.799 207.324 350.899 207.608 351.099 207.776C351.307 207.936 351.559 208.016 351.855 208.016C352.007 208.016 352.163 208 352.323 207.968C352.483 207.928 352.663 207.868 352.863 207.788L353.187 208.808C352.907 208.904 352.643 208.984 352.395 209.048C352.155 209.112 351.859 209.144 351.507 209.144ZM357.502 209.144C356.982 209.144 356.498 209.024 356.05 208.784C355.602 208.536 355.238 208.184 354.958 207.728C354.678 207.264 354.538 206.708 354.538 206.06C354.538 205.404 354.678 204.848 354.958 204.392C355.238 203.928 355.602 203.576 356.05 203.336C356.498 203.088 356.982 202.964 357.502 202.964C358.022 202.964 358.506 203.088 358.954 203.336C359.402 203.576 359.766 203.928 360.046 204.392C360.326 204.848 360.466 205.404 360.466 206.06C360.466 206.708 360.326 207.264 360.046 207.728C359.766 208.184 359.402 208.536 358.954 208.784C358.506 209.024 358.022 209.144 357.502 209.144ZM357.502 208.016C357.822 208.016 358.098 207.936 358.33 207.776C358.562 207.616 358.738 207.388 358.858 207.092C358.978 206.796 359.038 206.452 359.038 206.06C359.038 205.668 358.978 205.324 358.858 205.028C358.738 204.732 358.562 204.504 358.33 204.344C358.098 204.176 357.822 204.092 357.502 204.092C357.182 204.092 356.906 204.176 356.674 204.344C356.45 204.504 356.274 204.732 356.146 205.028C356.026 205.324 355.966 205.668 355.966 206.06C355.966 206.452 356.026 206.796 356.146 207.092C356.274 207.388 356.45 207.616 356.674 207.776C356.906 207.936 357.182 208.016 357.502 208.016ZM362.286 209L361.17 203.108H362.526L363.054 206.168C363.102 206.456 363.142 206.74 363.174 207.02C363.214 207.292 363.25 207.572 363.282 207.86H363.318C363.358 207.572 363.402 207.288 363.45 207.008C363.506 206.728 363.566 206.448 363.63 206.168L364.17 203.684H365.31L365.838 206.168C365.902 206.456 365.962 206.74 366.018 207.02C366.082 207.292 366.134 207.572 366.174 207.86H366.222C366.262 207.572 366.294 207.292 366.318 207.02C366.35 206.74 366.39 206.456 366.438 206.168L366.942 203.108H368.226L367.146 209H365.466L364.974 206.648C364.934 206.416 364.89 206.156 364.842 205.868C364.802 205.58 364.762 205.26 364.722 204.908H364.674C364.634 205.212 364.594 205.504 364.554 205.784C364.522 206.064 364.482 206.352 364.434 206.648L363.954 209H362.286ZM372.253 209.144C371.653 209.144 371.109 209.024 370.621 208.784C370.133 208.536 369.745 208.184 369.457 207.728C369.169 207.264 369.025 206.704 369.025 206.048C369.025 205.408 369.169 204.86 369.457 204.404C369.745 203.94 370.121 203.584 370.585 203.336C371.049 203.088 371.545 202.964 372.073 202.964C372.657 202.964 373.149 203.084 373.549 203.324C373.957 203.564 374.265 203.896 374.473 204.32C374.689 204.736 374.797 205.216 374.797 205.76C374.797 205.896 374.789 206.028 374.773 206.156C374.765 206.276 374.753 206.376 374.737 206.456H370.021V205.472H373.849L373.585 205.784C373.585 205.2 373.453 204.764 373.189 204.476C372.933 204.18 372.573 204.032 372.109 204.032C371.781 204.032 371.485 204.108 371.221 204.26C370.965 204.412 370.761 204.64 370.609 204.944C370.457 205.24 370.381 205.608 370.381 206.048C370.381 206.504 370.465 206.88 370.633 207.176C370.809 207.472 371.049 207.696 371.353 207.848C371.665 208 372.025 208.076 372.433 208.076C372.745 208.076 373.033 208.032 373.297 207.944C373.561 207.856 373.825 207.736 374.089 207.584L374.557 208.448C374.245 208.648 373.893 208.816 373.501 208.952C373.109 209.08 372.693 209.144 372.253 209.144ZM378.644 209.144C377.892 209.144 377.284 208.872 376.82 208.328C376.356 207.784 376.124 207.028 376.124 206.06C376.124 205.42 376.248 204.868 376.496 204.404C376.744 203.94 377.068 203.584 377.468 203.336C377.868 203.088 378.288 202.964 378.728 202.964C379.064 202.964 379.36 203.024 379.616 203.144C379.88 203.264 380.124 203.436 380.348 203.66H380.384L380.312 202.664V200.528H381.704V209H380.564L380.456 208.316H380.42C380.196 208.54 379.928 208.736 379.616 208.904C379.304 209.064 378.98 209.144 378.644 209.144ZM378.98 208.004C379.22 208.004 379.452 207.948 379.676 207.836C379.9 207.716 380.112 207.536 380.312 207.296V204.644C380.104 204.444 379.896 204.304 379.688 204.224C379.48 204.144 379.268 204.104 379.052 204.104C378.78 204.104 378.528 204.18 378.296 204.332C378.072 204.484 377.892 204.704 377.756 204.992C377.62 205.28 377.552 205.632 377.552 206.048C377.552 206.68 377.676 207.164 377.924 207.5C378.18 207.836 378.532 208.004 378.98 208.004Z" fill="white"/>
<path d="M36.5564 209L39.1004 201.152H40.7324L43.2764 209H41.8004L40.6124 204.824C40.5004 204.408 40.3804 203.98 40.2524 203.54C40.1324 203.1 40.0204 202.664 39.9164 202.232H39.8684C39.7564 202.664 39.6404 203.1 39.5204 203.54C39.4084 203.98 39.2924 204.408 39.1724 204.824L37.9724 209H36.5564ZM38.0564 206.876V205.784H41.7404V206.876H38.0564ZM48.3117 209.144C47.6317 209.144 47.1117 208.944 46.7517 208.544C46.3997 208.136 46.2237 207.572 46.2237 206.852V201.62H44.3037V200.528H47.6037V206.924C47.6037 207.324 47.7037 207.608 47.9037 207.776C48.1117 207.936 48.3637 208.016 48.6597 208.016C48.8117 208.016 48.9677 208 49.1277 207.968C49.2877 207.928 49.4677 207.868 49.6677 207.788L49.9917 208.808C49.7117 208.904 49.4477 208.984 49.1997 209.048C48.9597 209.112 48.6637 209.144 48.3117 209.144ZM55.507 209.144C54.827 209.144 54.307 208.944 53.947 208.544C53.595 208.136 53.419 207.572 53.419 206.852V201.62H51.499V200.528H54.799V206.924C54.799 207.324 54.899 207.608 55.099 207.776C55.307 207.936 55.559 208.016 55.855 208.016C56.007 208.016 56.163 208 56.323 207.968C56.483 207.928 56.663 207.868 56.863 207.788L57.187 208.808C56.907 208.904 56.643 208.984 56.395 209.048C56.155 209.112 55.859 209.144 55.507 209.144ZM61.5023 209.144C60.9823 209.144 60.4983 209.024 60.0503 208.784C59.6023 208.536 59.2383 208.184 58.9583 207.728C58.6783 207.264 58.5383 206.708 58.5383 206.06C58.5383 205.404 58.6783 204.848 58.9583 204.392C59.2383 203.928 59.6023 203.576 60.0503 203.336C60.4983 203.088 60.9823 202.964 61.5023 202.964C62.0223 202.964 62.5063 203.088 62.9543 203.336C63.4023 203.576 63.7663 203.928 64.0463 204.392C64.3263 204.848 64.4663 205.404 64.4663 206.06C64.4663 206.708 64.3263 207.264 64.0463 207.728C63.7663 208.184 63.4023 208.536 62.9543 208.784C62.5063 209.024 62.0223 209.144 61.5023 209.144ZM61.5023 208.016C61.8223 208.016 62.0983 207.936 62.3303 207.776C62.5623 207.616 62.7383 207.388 62.8583 207.092C62.9783 206.796 63.0383 206.452 63.0383 206.06C63.0383 205.668 62.9783 205.324 62.8583 205.028C62.7383 204.732 62.5623 204.504 62.3303 204.344C62.0983 204.176 61.8223 204.092 61.5023 204.092C61.1823 204.092 60.9063 204.176 60.6743 204.344C60.4503 204.504 60.2743 204.732 60.1463 205.028C60.0263 205.324 59.9663 205.668 59.9663 206.06C59.9663 206.452 60.0263 206.796 60.1463 207.092C60.2743 207.388 60.4503 207.616 60.6743 207.776C60.9063 207.936 61.1823 208.016 61.5023 208.016ZM66.2857 209L65.1697 203.108H66.5257L67.0537 206.168C67.1017 206.456 67.1417 206.74 67.1737 207.02C67.2137 207.292 67.2497 207.572 67.2817 207.86H67.3177C67.3577 207.572 67.4017 207.288 67.4497 207.008C67.5057 206.728 67.5657 206.448 67.6297 206.168L68.1697 203.684H69.3097L69.8377 206.168C69.9017 206.456 69.9617 206.74 70.0177 207.02C70.0817 207.292 70.1337 207.572 70.1737 207.86H70.2217C70.2617 207.572 70.2937 207.292 70.3177 207.02C70.3497 206.74 70.3897 206.456 70.4377 206.168L70.9417 203.108H72.2257L71.1457 209H69.4657L68.9737 206.648C68.9337 206.416 68.8897 206.156 68.8417 205.868C68.8017 205.58 68.7617 205.26 68.7217 204.908H68.6737C68.6337 205.212 68.5937 205.504 68.5537 205.784C68.5217 206.064 68.4817 206.352 68.4337 206.648L67.9537 209H66.2857ZM76.253 209.144C75.653 209.144 75.109 209.024 74.621 208.784C74.133 208.536 73.745 208.184 73.457 207.728C73.169 207.264 73.025 206.704 73.025 206.048C73.025 205.408 73.169 204.86 73.457 204.404C73.745 203.94 74.121 203.584 74.585 203.336C75.049 203.088 75.545 202.964 76.073 202.964C76.657 202.964 77.149 203.084 77.549 203.324C77.957 203.564 78.265 203.896 78.473 204.32C78.689 204.736 78.797 205.216 78.797 205.76C78.797 205.896 78.789 206.028 78.773 206.156C78.765 206.276 78.753 206.376 78.737 206.456H74.021V205.472H77.849L77.585 205.784C77.585 205.2 77.453 204.764 77.189 204.476C76.933 204.18 76.573 204.032 76.109 204.032C75.781 204.032 75.485 204.108 75.221 204.26C74.965 204.412 74.761 204.64 74.609 204.944C74.457 205.24 74.381 205.608 74.381 206.048C74.381 206.504 74.465 206.88 74.633 207.176C74.809 207.472 75.049 207.696 75.353 207.848C75.665 208 76.025 208.076 76.433 208.076C76.745 208.076 77.033 208.032 77.297 207.944C77.561 207.856 77.825 207.736 78.089 207.584L78.557 208.448C78.245 208.648 77.893 208.816 77.501 208.952C77.109 209.08 76.693 209.144 76.253 209.144ZM82.6443 209.144C81.8923 209.144 81.2843 208.872 80.8203 208.328C80.3563 207.784 80.1243 207.028 80.1243 206.06C80.1243 205.42 80.2483 204.868 80.4963 204.404C80.7443 203.94 81.0683 203.584 81.4683 203.336C81.8683 203.088 82.2883 202.964 82.7283 202.964C83.0643 202.964 83.3603 203.024 83.6163 203.144C83.8803 203.264 84.1243 203.436 84.3483 203.66H84.3843L84.3123 202.664V200.528H85.7043V209H84.5643L84.4563 208.316H84.4203C84.1963 208.54 83.9283 208.736 83.6163 208.904C83.3043 209.064 82.9803 209.144 82.6443 209.144ZM82.9803 208.004C83.2203 208.004 83.4523 207.948 83.6763 207.836C83.9003 207.716 84.1123 207.536 84.3123 207.296V204.644C84.1043 204.444 83.8963 204.304 83.6883 204.224C83.4803 204.144 83.2683 204.104 83.0523 204.104C82.7803 204.104 82.5283 204.18 82.2963 204.332C82.0723 204.484 81.8923 204.704 81.7563 204.992C81.6203 205.28 81.5523 205.632 81.5523 206.048C81.5523 206.68 81.6763 207.164 81.9243 207.5C82.1803 207.836 82.5323 208.004 82.9803 208.004Z" fill="white"/>
<g filter="url(#filter11_d_32_36)">
<rect x="118" y="188" width="78" height="36" fill="#219867"/>
</g>
<g filter="url(#filter12_d_32_36)">
<rect x="222" y="188" width="78" height="36" fill="#219867"/>
</g>
<path d="M162.062 202.115L160.885 200.938L157 204.823L153.115 200.938L151.938 202.115L155.823 206L151.938 209.885L153.115 211.062L157 207.177L160.885 211.062L162.062 209.885L158.177 206L162.062 202.115Z" fill="white"/>
<path d="M266.062 202.115L264.885 200.938L261 204.823L257.115 200.938L255.938 202.115L259.823 206L255.938 209.885L257.115 211.062L261 207.177L264.885 211.062L266.062 209.885L262.177 206L266.062 202.115Z" fill="white"/>
<defs>
<filter id="filter0_d_32_36" x="166" y="19" width="86" height="44" filterUnits="userSpaceOnUse" color-interpolation-filters="sRGB">
<feFlood flood-opacity="0" result="BackgroundImageFix"/>
<feColorMatrix in="SourceAlpha" type="matrix" values="0 0 0 0 0 0 0 0 0 0 0 0 0 0 0 0 0 0 127 0" result="hardAlpha"/>
<feOffset dy="1"/>
<feGaussianBlur stdDeviation="2"/>
<feComposite in2="hardAlpha" operator="out"/>
<feColorMatrix type="matrix" values="0 0 0 0 0 0 0 0 0 0 0 0 0 0 0 0 0 0 0.15 0"/>
<feBlend mode="normal" in2="BackgroundImageFix" result="effect1_dropShadow_32_36"/>
<feBlend mode="normal" in="SourceGraphic" in2="effect1_dropShadow_32_36" result="shape"/>
</filter>
<filter id="filter1_d_32_36" x="66" y="103" width="86" height="44" filterUnits="userSpaceOnUse" color-interpolation-filters="sRGB">
<feFlood flood-opacity="0" result="BackgroundImageFix"/>
<feColorMatrix in="SourceAlpha" type="matrix" values="0 0 0 0 0 0 0 0 0 0 0 0 0 0 0 0 0 0 127 0" result="hardAlpha"/>
<feOffset dy="1"/>
<feGaussianBlur stdDeviation="2"/>
<feComposite in2="hardAlpha" operator="out"/>
<feColorMatrix type="matrix" values="0 0 0 0 0 0 0 0 0 0 0 0 0 0 0 0 0 0 0.15 0"/>
<feBlend mode="normal" in2="BackgroundImageFix" result="effect1_dropShadow_32_36"/>
<feBlend mode="normal" in="SourceGraphic" in2="effect1_dropShadow_32_36" result="shape"/>
</filter>
<filter id="filter2_d_32_36" x="18" y="185" width="86" height="44" filterUnits="userSpaceOnUse" color-interpolation-filters="sRGB">
<feFlood flood-opacity="0" result="BackgroundImageFix"/>
<feColorMatrix in="SourceAlpha" type="matrix" values="0 0 0 0 0 0 0 0 0 0 0 0 0 0 0 0 0 0 127 0" result="hardAlpha"/>
<feOffset dy="1"/>
<feGaussianBlur stdDeviation="2"/>
<feComposite in2="hardAlpha" operator="out"/>
<feColorMatrix type="matrix" values="0 0 0 0 0 0 0 0 0 0 0 0 0 0 0 0 0 0 0.15 0"/>
<feBlend mode="normal" in2="BackgroundImageFix" result="effect1_dropShadow_32_36"/>
<feBlend mode="normal" in="SourceGraphic" in2="effect1_dropShadow_32_36" result="shape"/>
</filter>
<filter id="filter3_d_32_36" x="218" y="185" width="86" height="44" filterUnits="userSpaceOnUse" color-interpolation-filters="sRGB">
<feFlood flood-opacity="0" result="BackgroundImageFix"/>
<feColorMatrix in="SourceAlpha" type="matrix" values="0 0 0 0 0 0 0 0 0 0 0 0 0 0 0 0 0 0 127 0" result="hardAlpha"/>
<feOffset dy="1"/>
<feGaussianBlur stdDeviation="2"/>
<feComposite in2="hardAlpha" operator="out"/>
<feColorMatrix type="matrix" values="0 0 0 0 0 0 0 0 0 0 0 0 0 0 0 0 0 0 0.15 0"/>
<feBlend mode="normal" in2="BackgroundImageFix" result="effect1_dropShadow_32_36"/>
<feBlend mode="normal" in="SourceGraphic" in2="effect1_dropShadow_32_36" result="shape"/>
</filter>
<filter id="filter4_d_32_36" x="266" y="103" width="86" height="44" filterUnits="userSpaceOnUse" color-interpolation-filters="sRGB">
<feFlood flood-opacity="0" result="BackgroundImageFix"/>
<feColorMatrix in="SourceAlpha" type="matrix" values="0 0 0 0 0 0 0 0 0 0 0 0 0 0 0 0 0 0 127 0" result="hardAlpha"/>
<feOffset dy="1"/>
<feGaussianBlur stdDeviation="2"/>
<feComposite in2="hardAlpha" operator="out"/>
<feColorMatrix type="matrix" values="0 0 0 0 0 0 0 0 0 0 0 0 0 0 0 0 0 0 0.15 0"/>
<feBlend mode="normal" in2="BackgroundImageFix" result="effect1_dropShadow_32_36"/>
<feBlend mode="normal" in="SourceGraphic" in2="effect1_dropShadow_32_36" result="shape"/>
</filter>
<filter id="filter5_d_32_36" x="114" y="185" width="86" height="44" filterUnits="userSpaceOnUse" color-interpolation-filters="sRGB">
<feFlood flood-opacity="0" result="BackgroundImageFix"/>
<feColorMatrix in="SourceAlpha" type="matrix" values="0 0 0 0 0 0 0 0 0 0 0 0 0 0 0 0 0 0 127 0" result="hardAlpha"/>
<feOffset dy="1"/>
<feGaussianBlur stdDeviation="2"/>
<feComposite in2="hardAlpha" operator="out"/>
<feColorMatrix type="matrix" values="0 0 0 0 0 0 0 0 0 0 0 0 0 0 0 0 0 0 0.15 0"/>
<feBlend mode="normal" in2="BackgroundImageFix" result="effect1_dropShadow_32_36"/>
<feBlend mode="normal" in="SourceGraphic" in2="effect1_dropShadow_32_36" result="shape"/>
</filter>
<filter id="filter6_d_32_36" x="314" y="185" width="86" height="44" filterUnits="userSpaceOnUse" color-interpolation-filters="sRGB">
<feFlood flood-opacity="0" result="BackgroundImageFix"/>
<feColorMatrix in="SourceAlpha" type="matrix" values="0 0 0 0 0 0 0 0 0 0 0 0 0 0 0 0 0 0 127 0" result="hardAlpha"/>
<feOffset dy="1"/>
<feGaussianBlur stdDeviation="2"/>
<feComposite in2="hardAlpha" operator="out"/>
<feColorMatrix type="matrix" values="0 0 0 0 0 0 0 0 0 0 0 0 0 0 0 0 0 0 0.15 0"/>
<feBlend mode="normal" in2="BackgroundImageFix" result="effect1_dropShadow_32_36"/>
<feBlend mode="normal" in="SourceGraphic" in2="effect1_dropShadow_32_36" result="shape"/>
</filter>
<filter id="filter7_d_32_36" x="66" y="103" width="86" height="44" filterUnits="userSpaceOnUse" color-interpolation-filters="sRGB">
<feFlood flood-opacity="0" result="BackgroundImageFix"/>
<feColorMatrix in="SourceAlpha" type="matrix" values="0 0 0 0 0 0 0 0 0 0 0 0 0 0 0 0 0 0 127 0" result="hardAlpha"/>
<feOffset dy="1"/>
<feGaussianBlur stdDeviation="2"/>
<feComposite in2="hardAlpha" operator="out"/>
<feColorMatrix type="matrix" values="0 0 0 0 0 0 0 0 0 0 0 0 0 0 0 0 0 0 0.15 0"/>
<feBlend mode="normal" in2="BackgroundImageFix" result="effect1_dropShadow_32_36"/>
<feBlend mode="normal" in="SourceGraphic" in2="effect1_dropShadow_32_36" result="shape"/>
</filter>
<filter id="filter8_d_32_36" x="266" y="103" width="86" height="44" filterUnits="userSpaceOnUse" color-interpolation-filters="sRGB">
<feFlood flood-opacity="0" result="BackgroundImageFix"/>
<feColorMatrix in="SourceAlpha" type="matrix" values="0 0 0 0 0 0 0 0 0 0 0 0 0 0 0 0 0 0 127 0" result="hardAlpha"/>
<feOffset dy="1"/>
<feGaussianBlur stdDeviation="2"/>
<feComposite in2="hardAlpha" operator="out"/>
<feColorMatrix type="matrix" values="0 0 0 0 0 0 0 0 0 0 0 0 0 0 0 0 0 0 0.15 0"/>
<feBlend mode="normal" in2="BackgroundImageFix" result="effect1_dropShadow_32_36"/>
<feBlend mode="normal" in="SourceGraphic" in2="effect1_dropShadow_32_36" result="shape"/>
</filter>
<filter id="filter9_d_32_36" x="314" y="185" width="86" height="44" filterUnits="userSpaceOnUse" color-interpolation-filters="sRGB">
<feFlood flood-opacity="0" result="BackgroundImageFix"/>
<feColorMatrix in="SourceAlpha" type="matrix" values="0 0 0 0 0 0 0 0 0 0 0 0 0 0 0 0 0 0 127 0" result="hardAlpha"/>
<feOffset dy="1"/>
<feGaussianBlur stdDeviation="2"/>
<feComposite in2="hardAlpha" operator="out"/>
<feColorMatrix type="matrix" values="0 0 0 0 0 0 0 0 0 0 0 0 0 0 0 0 0 0 0.15 0"/>
<feBlend mode="normal" in2="BackgroundImageFix" result="effect1_dropShadow_32_36"/>
<feBlend mode="normal" in="SourceGraphic" in2="effect1_dropShadow_32_36" result="shape"/>
</filter>
<filter id="filter10_d_32_36" x="18" y="185" width="86" height="44" filterUnits="userSpaceOnUse" color-interpolation-filters="sRGB">
<feFlood flood-opacity="0" result="BackgroundImageFix"/>
<feColorMatrix in="SourceAlpha" type="matrix" values="0 0 0 0 0 0 0 0 0 0 0 0 0 0 0 0 0 0 127 0" result="hardAlpha"/>
<feOffset dy="1"/>
<feGaussianBlur stdDeviation="2"/>
<feComposite in2="hardAlpha" operator="out"/>
<feColorMatrix type="matrix" values="0 0 0 0 0 0 0 0 0 0 0 0 0 0 0 0 0 0 0.15 0"/>
<feBlend mode="normal" in2="BackgroundImageFix" result="effect1_dropShadow_32_36"/>
<feBlend mode="normal" in="SourceGraphic" in2="effect1_dropShadow_32_36" result="shape"/>
</filter>
<filter id="filter11_d_32_36" x="114" y="185" width="86" height="44" filterUnits="userSpaceOnUse" color-interpolation-filters="sRGB">
<feFlood flood-opacity="0" result="BackgroundImageFix"/>
<feColorMatrix in="SourceAlpha" type="matrix" values="0 0 0 0 0 0 0 0 0 0 0 0 0 0 0 0 0 0 127 0" result="hardAlpha"/>
<feOffset dy="1"/>
<feGaussianBlur stdDeviation="2"/>
<feComposite in2="hardAlpha" operator="out"/>
<feColorMatrix type="matrix" values="0 0 0 0 0 0 0 0 0 0 0 0 0 0 0 0 0 0 0.15 0"/>
<feBlend mode="normal" in2="BackgroundImageFix" result="effect1_dropShadow_32_36"/>
<feBlend mode="normal" in="SourceGraphic" in2="effect1_dropShadow_32_36" result="shape"/>
</filter>
<filter id="filter12_d_32_36" x="218" y="185" width="86" height="44" filterUnits="userSpaceOnUse" color-interpolation-filters="sRGB">
<feFlood flood-opacity="0" result="BackgroundImageFix"/>
<feColorMatrix in="SourceAlpha" type="matrix" values="0 0 0 0 0 0 0 0 0 0 0 0 0 0 0 0 0 0 127 0" result="hardAlpha"/>
<feOffset dy="1"/>
<feGaussianBlur stdDeviation="2"/>
<feComposite in2="hardAlpha" operator="out"/>
<feColorMatrix type="matrix" values="0 0 0 0 0 0 0 0 0 0 0 0 0 0 0 0 0 0 0.15 0"/>
<feBlend mode="normal" in2="BackgroundImageFix" result="effect1_dropShadow_32_36"/>
<feBlend mode="normal" in="SourceGraphic" in2="effect1_dropShadow_32_36" result="shape"/>
</filter>
<linearGradient id="paint0_linear_32_36" x1="110" y1="106" x2="209" y2="62" gradientUnits="userSpaceOnUse">
<stop stop-color="#209766"/>
<stop offset="1" stop-color="#209766" stop-opacity="0.2"/>
</linearGradient>
<linearGradient id="paint1_linear_32_36" x1="62" y1="182" x2="109" y2="141" gradientUnits="userSpaceOnUse">
<stop stop-color="#209766"/>
<stop offset="1" stop-color="#209766" stop-opacity="0.1"/>
</linearGradient>
<linearGradient id="paint2_linear_32_36" x1="262" y1="177.5" x2="309" y2="141" gradientUnits="userSpaceOnUse">
<stop stop-color="#209766"/>
<stop offset="1" stop-color="#209766" stop-opacity="0.1"/>
</linearGradient>
<linearGradient id="paint3_linear_32_36" x1="156" y1="184" x2="109" y2="141" gradientUnits="userSpaceOnUse">
<stop stop-color="#C74E4E"/>
<stop offset="1" stop-color="#C74E4E" stop-opacity="0.1"/>
</linearGradient>
<linearGradient id="paint4_linear_32_36" x1="356" y1="184" x2="309" y2="141" gradientUnits="userSpaceOnUse">
<stop stop-color="#C74E4E"/>
<stop offset="1" stop-color="#C74E4E" stop-opacity="0.1"/>
</linearGradient>
<linearGradient id="paint5_linear_32_36" x1="308" y1="106" x2="209" y2="62" gradientUnits="userSpaceOnUse">
<stop stop-color="#C74E4E"/>
<stop offset="1" stop-color="#C74E4E" stop-opacity="0.2"/>
</linearGradient>
</defs>
</svg>
